# xmcd CD database file generated by Grip 2.9
# 
# Track frame offsets:
#       150
#       19972
#       21802
#       37557
#       56387
#       70745
#       83465
#       84565
#       102097
#       118827
#       137550
#       148560
#       150992
#       164347
#       184590
#       215792
#       242350
# 
# Disc length: 4351 seconds
# 
# Revision: 3
# Processed by: cddbd v1.4b41PL1 Copyright (c) Steve Scherf et al.
# Submitted via: Grip 2.9
# 
DISCID=cd10fd11
DTITLE=Anja Krabbe - 497500
DYEAR=1900
DGENRE=
TTITLE0=Gestrandet
TTITLE1=Interlude
TTITLE2=Manchmal
TTITLE3=Planlos
TTITLE4=Irre
TTITLE5=Du Hast Gedacht
TTITLE6=Interlude (2)
TTITLE7=Leilala
TTITLE8=Früher
TTITLE9=Noch Eine Kleine Weile
TTITLE10=Spring
TTITLE11=Interlude (2) (2)
TTITLE12=Mach Mich An-Ja
TTITLE13=7. Galaxie
TTITLE14=Paula's Lied
TTITLE15=Irre (Chill-Mix)
TTITLE16=CD-Extra (Manchmal RA-Mix/Video)
EXTD=
EXTT0=
EXTT1=
EXTT2=
EXTT3=
EXTT4=
EXTT5=
EXTT6=
EXTT7=
EXTT8=
EXTT9=
EXTT10=
EXTT11=
EXTT12=
EXTT13=
EXTT14=
EXTT15=
EXTT16=
PLAYORDER=
